<mxfile host="app.diagrams.net" modified="2023-02-10T08:22:06.099Z" agent="5.0 (Macintosh; Intel Mac OS X 10_15_7) AppleWebKit/537.36 (KHTML, like Gecko) Chrome/109.0.0.0 Safari/537.36" etag="vIiqNH0HrUE63a4WGMg8" version="20.8.19" type="github">
  <diagram name="Page-1" id="e3a06f82-3646-2815-327d-82caf3d4e204">
    <mxGraphModel dx="3221.5" dy="775" grid="1" gridSize="10" guides="1" tooltips="1" connect="1" arrows="1" fold="1" page="1" pageScale="1.5" pageWidth="1169" pageHeight="826" background="none" math="0" shadow="0">
      <root>
        <mxCell id="0" style=";html=1;" />
        <mxCell id="1" style=";html=1;" parent="0" />
        <mxCell id="0JAL39eOcJuFoZ2dBYce-2" value="" style="aspect=fixed;perimeter=ellipsePerimeter;html=1;align=center;shadow=0;dashed=0;spacingTop=3;image;image=img/lib/active_directory/web_server.svg;" vertex="1" parent="1">
          <mxGeometry x="-921.2" y="710" width="59.2" height="74" as="geometry" />
        </mxCell>
        <mxCell id="0JAL39eOcJuFoZ2dBYce-3" value="" style="sketch=0;html=1;dashed=0;whitespace=wrap;fillColor=#2875E2;strokeColor=#ffffff;points=[[0.005,0.63,0],[0.1,0.2,0],[0.9,0.2,0],[0.5,0,0],[0.995,0.63,0],[0.72,0.99,0],[0.5,1,0],[0.28,0.99,0]];verticalLabelPosition=bottom;align=center;verticalAlign=top;shape=mxgraph.kubernetes.icon;prIcon=api" vertex="1" parent="1">
          <mxGeometry x="-744" y="672" width="67.71" height="65" as="geometry" />
        </mxCell>
        <mxCell id="0JAL39eOcJuFoZ2dBYce-5" value="Client" style="verticalLabelPosition=bottom;aspect=fixed;html=1;verticalAlign=top;strokeColor=none;shape=mxgraph.citrix.desktop;fillColor=#66B2FF;gradientColor=#0066CC;fontSize=14;" vertex="1" parent="1">
          <mxGeometry x="-948.5" y="350.00000000000006" width="89" height="98" as="geometry" />
        </mxCell>
        <mxCell id="0JAL39eOcJuFoZ2dBYce-6" value="" style="shadow=0;dashed=0;html=1;labelPosition=center;verticalLabelPosition=bottom;verticalAlign=top;align=center;outlineConnect=0;shape=mxgraph.veeam.3d.proxy;" vertex="1" parent="1">
          <mxGeometry x="-939" y="577" width="66" height="66" as="geometry" />
        </mxCell>
        <mxCell id="0JAL39eOcJuFoZ2dBYce-7" value="" style="aspect=fixed;perimeter=ellipsePerimeter;html=1;align=center;shadow=0;dashed=0;spacingTop=3;image;image=img/lib/active_directory/database.svg;" vertex="1" parent="1">
          <mxGeometry x="-932.12" y="837" width="71.62" height="53" as="geometry" />
        </mxCell>
        <mxCell id="0JAL39eOcJuFoZ2dBYce-8" value="" style="shape=image;verticalLabelPosition=bottom;labelBackgroundColor=default;verticalAlign=top;aspect=fixed;imageAspect=0;image=data:image/png,iVBORw0KGgoAAAANSUhEUgAAAYQAAACCCAMAAABxTU9IAAAAwFBMVEX///8cHypAU10EqtoAABMVGSUAAAAAABYNEiAACBoApdgTFiNvcXUAAA47T1kaHSmUlZlseIAAAAjt7u/Mzc8ySFPg4OFLTVVBQ0nZ2tvBwcQqLDa7vL5UVl2np6s3TFe3vcCepqqVnqPD6fWIkpdZaHD19fYnQEyMjZEAodYxtt/o9vtOXmdMuuHx8fKvsLM1N0CDhIhlZmyL0et4eX4uMDnQ7fed2O5zyOey3O9bXWPe8/plxOUcOUaLlZtteoGaFfxWAAAVqklEQVR4nO1dCXeqOhCGCrKpWEHUunUTq7aiVrva2///r17ClgmEiLa23nf5znnneZWEZL5kZjKZpILwl8HqmmIAdfDbbXFbctSW5W+35UdhV8Wo45XfbotjRANCXvx2W34UtnRCJMgxCe3fbsuPoiDhBFCQcAIoSDgBFCScAAoSTgAnRYJRkFCQ8Fs4JRLmYrkaoLz67bb8KE6JBMGyQ3R+uyU/i5Mi4V9FQcIJoCDhBFCQcAIoSDgBFCScAAoSTgAFCfnhugcV8sF9Zi8SDmnEEbGPUFyrV1+u+q12661yN+jM93uR5d2tV/22X9hz8hbGxSrtRVcUN4u3u4GT2dxcJLgOasRbq93ur9Z3nrVXB+Z23Pklpx17AQgFtWd3pW5n2ZaqmqoasiwbqqY0xNUgqxvWIEKwbnftZbshgcJlceXl6Ad6ZxUVk2UTQTbQSzeVC3a53STMe5VuQ9FUw8BtUDVJai0zKks3pN5XG5qG22/4nV8s7aDoRdTTHnjcu4tgg/enhdKqAqFI5cXa5rXH9doNLcrjCGGqkrpmB0feykqAKo4izusLVNhMFK5263wJuL1+NflOv9yAVW4XCc5SrKp0G0RZqy7qu+cDakhDM+iystpoe7jaqKdKmcjbUbQQEoiirmKhLFAHXF8oYqpSZud8eItqUhqhSJQKi4Y470ZG7/M2CruwtOgxysbvbFcNVjFRZpbjk+AuNc1kVqaIO8aC0MtoiFxt2YLdiP4pkUaxN3X6US1mdy54XbZQ2J3Ddb6xKQi6rN6lO0FIaDsrKbOwXF1nCaDT57xTrq5S45dLQm/DpsAXidS2UwVg5yX2WEAwtAFJd9qDhM0OoTCa4ZlqpjhwlUo7NRliEsxNm1tYabEt9EDjv1PrJgXHIcFds0ddBEO5y+TAE3kNMbV+XHN+EsRuO6kYaaGsUkNzKfEK+J1QL7JIEE1u90VRa7Hmwu53ytXEO7NJsFrKjspEqZ/hre1qCOjeHiSIu4TSTwilsrMHeEYn9Fhrx1sAFIYGX0u7y5kSPRcySXAW3EkVllkw7fMqR0Mi7EPCLiSEUlF2jUkMs0pLhEmCidww5JAlf6qm8neXqa4j/1ROtsPUnDwkWHk4QIW6DBZWOQZgjMNIkNlCaXg8eciqIlWRd5t0V8uUXUiTYCrlLlqlofVOS6pSYjGNRPcHVaqkrDXK6qa1MMoN2rrKXThpM0hwUzYJrTakqqQk+61uUhykJqQcFE35zT4OIEFWyhu0SqsvK22lQQtFIULxGiL9U3mzHPTsC6/eKtP2XZahRJIkmMi5J7XalTJ8o0anj9vU3JMbm3rEr103KJdJg9LOIGGlUQ0xqo1+3buwe95yU6Y51ZJ6cUB3HklssfRw5+/aZYZ+2JsEs7GBQlnTQoldJIc2S4oIl8jI04U/qm/ZJKgKnF0I7gp2UIJ6xe3CstKCtr8XXShUCfzIJoEWpNxogRLWtUSNvjJt2JwyJTEJrhFdT6TJFfcnQdUShnRegY0tR6J+g42UpTpdSKg3oLyqoE6aBI3he8A5pkEPcQmolZXkK5GOAMoKZv8zSbCoEZvya91KFfxuapRPsoB9MKSk5VpWE5NhTxIYfigSKKkzEsoFHAtqN7007mwAS6ZIfqBIUPupggKl+c0uqBJyILNWUQMwPSUyw5gkVOAokhh+mAdVEqUXB9AgaG0nVdQ26Om+HwkaMyGpTl5qGsFXUJTqguXPU66HQgYLLCkv2D74ihQFVn1NprmpsVeyA8IT6COLBEqjVJknl2zAgqkQUbsiZCfptwedp237XiQYGZl5QCgNv/c26IIssuMLDtDgQDlAEqTkSi7qA1FIWqx1LIM5zGkAopSYJxYJazBENFYwAKEHph7Qi4BpJLGMzlPKbi8SqhlZYRaZCoFQACshLQzYwEARiQASjLeMksIyrp+IDfQ9e1uAnBEU1Vi0DBJcYHeyD4/VySuBXmyTHphqVh5dj3Iv9iAhu29EgRot9M85NJ3ZhxCXGqPqFnM1n0Annmly7KODhkrZ+z6EKjnWkgwSPKBhM0cRWkmQxirRrO1ANXud2RA4TvchoZrZGhKVNbVEF9TsaK9FlKcZr55A7Ii1Eg1BFsFSVBmx1rzDp2AqKPEiIk1CrqGHxjPpaDyxwPSQmdYwgANctT1I4FTpktBe2aU8Cy07ykhNhdiSEhJUTloyGUeRUwyIL/NyaUnJ2BtgkABsWoNTG5gKsdIC/Cm8Y9FASHuQoGbYJ4y3+KkGchOA28AVSAeYyai9hAQef/W4ZCQjYiagw5uGFw/UWOJpEkiof8dxYtIO0wgaAqaaaaS9UwKiPfYhgccrEQHSWXMyjqAfzwAZSDHDhIRMF0eAqj3Ska1cgwUSL7fCr9IkACPPncpwbRIGyMHAMlq8osCT3YOEZBgegowI9BQYRztySIgjaETLMkJCtgmCyidsFeiSuem3stEmz0Ux6DQJS6aqYGC+ICYmGKMXoPPc0QAU4x4k8JQjGTrIt+8lPdYcxeJX5iPhIkUC0OKmwQHwH+VQW6RJAHq9zFMplLZeJrrENwlw4H4TCR4kwcvdDjJnYqufk4S4YEiCRcXM8kHJJAG4nmX+Xj4xr+G4J6LdMYmgzL6JhLgfe5HQiReOsT+aj4ReciY4B5AQdShNwiI3CWDZGDhzd7lJuDhgo/8YM4FYsa+S0KEj+LkQvYA/E/gJf0Tme5NwSLZFfhLy24ROev36gzMhm4T8NmGZVEfXwO3muHdUH45hmC/AOpJ/cxKZkXsa5pR3dIhNaGSSAGIKvFZQT4a+bG7vFsrsCCQA1cB3lYEVix881EUFUQBDywVFyzTMd4xVJBukueG4hy4q/yTy3Xd7RxQJ0F2UsssIcKEdLyhykkAWa+HqZRM77EalngvXkaJJk+Dlicj6MjPJiitoLojfZW2HpHp6DBIEENmv8owTiOAxwhb7kZBy2PODEbYgc9lUeO4RmZGmGXAKwhaixFNlzkFhi/wkgB0R7pQE+4BaVHk+EgYpEsjk9gO5+4ARwAO+Fi96AqZyHGNqgQAsb8nMXlB8HwkgosnzLmAMcpMOZe9HQo/oYq7YGGCQQITLjeDZwApH8w8IN5odLLggJe27SCBG5oLe1OFMhQEjGn8wCRbY5eKFUV07paj5mzpiNZtTGLaOWgs3DDk7WmDb4btIuKZIoLc3s6yCAzbEWdub+5EA38nxDef9cip3lLW9CZwtU8vaXAKjCMwXmPCiZPWhAzMyvomEOk0CzHjJ6oPbB34EeeHBJPTgVlXW4O20NVHtJpQEa6MfZrxk5TfYwAEBaU5wjMubjM5vqDy1o5AA1/2iwfTUXJhlCFqRkwQYOg8rBCPQzFisDlTcG0Oke8IioQMXf6z0b/QISFM3DdLHOUxAVpmZ84k01yOR0KOSvzZp+zSHacvQ9uUjoZ4mgcq5MhkJeIK1CuOFidQwZvIX1Kii8pb2U+0uyEOhXgengqi103PBatGpxkcigU6DNMzkwKQSQ6l8hsNJcKnsQ6Wd2IOa17vxTrhswLrZaZBUzq+6SDamDhOsZTovW6SKikmj2Ese4TkWCQ51qsdUWrAl9ht1CInK6zucBDqXR5SVFjlu7NprEeZbyTBFL09CsKGu4JFWb0Flb5XpplJ6ADWkD8fDRT+Vl30sEpKp8YayWfdsx3Ls3rqrUCNBpjzKL5AA8+uCd8qLyl0d5/CLSuKoVwNkBOVLjVe1dv2iY1kde/Bm0ifZpKQnWkk2ZLEMOu9Vukr6wMfRSEidk5BVfPpZ1aTkyTd6OfcVEtxFMo9fVjX/NIuZeCd13i2DhHk3UZusKaguTVESB5PVtPeUPOMja37nFTQWGMeXIAnM2yDzkXCXJkF4S+XhM5GYyvlIuGOSIDi7DhuG0CixZR2XcuRctTE4EOYi85RZxvmxI5Ig9PMcHCwnbPaXSBA6Rp4jdgqdcZ95cLAj56hNY+b8WvzDwzS+SR0xSRAqydMQKRipHPZ8JCwzSBCc7s7Om8kj19lHaJ3Nztok5hEKNBd2n74ldRxxJmCPmT+UGCcocpJAks0Snqj7xj8/bKYOYPEOk1s7apOl7AjJOvvovd8O8vm4JAj2gnOO1lAYod6vkoB8S4Nz6B35iyneudcqoNqyBalteDsGPTH7RgZVq9eZyV9HIAFNBjODBkNqsXqQj4Q1hwS0MlbZvUezoL33BSPOKunexhQYS34+zPxOZt/KYFRbnYzkry+QsMwkQbDq3dRFNSby9vrs6CohIftcAF4RmCHKrORMZ7mRkqeNTUMxVsxMTrsRVZY6Cxv8vlKTXim+LKi75idiBJ1fpBqC+u4vXRluPV7kymFbVCYJvATrZSyURrqf895qIymqETyAXPeq2r7LqmxVlkLw3ueJ3RCM0Ez4zoXmX3Rl4Gui0DvlVj1DaO4mqqybsavvDFoiqiyQDz5J3xDfct7+5dqVBVoeqDK+/goVlaT2MugYWOuQ4eb247YAa1OJhFLlZeD0YqGwb3qwOoN1f9M1DbHbXi0vOLeFWV4E7o3dVoTsR+ZOr75evfVb/VVlXbc5rXejyjgb845dX7W7oix3F/1K3d7n/rU56vyq1V5sNou3pdeJ+g7S+8Gcd1k9m3+bUNAzjmNZP36T3/e90A16cGDheYJkYtd2JJgVOB6Aov/tpvyzIEfMTPO32/LPAvyxyX/rb4b8JJwdd3YSk7Aj07LAwXC0Rob3HAAcwC/zlt0FDofbNZh76zHIRChMwrHgb+UbzLtmfICkIE6GWIGvILyD0SxnCBhm1BSrhOOgHm+wK6lbWDFgJgB171mBbwN101C5n6TBWsNsDF5ctMDhoJKuRKPRBaFD92JN3d6YdZlSgS/CTmzrylpZXN3h00HL5K2iWcmqBb4ML7W5bqr+ObnUJgf3ME+BL6HHvoU2CTN1U2SBb4Qt50h5YaYtF/g+OP2d+T5yETQ6OjxOsoU/DVKZ3gW+H1bWH4LBFGjacr+/sVXgQFh3ZirTJFBE6rIIVvwY3N5aLMPL/k1ZVcqtQTELfhidwbJdLZcb1WqjUZZby0ExCX4Jc6dj23bnx3NN/h+Y3Tw/vrw8vj79dkP+Xbw+TCLo24KH38BzaVJ6uXnHH99ft/pkOvvtFv1zeJ9OSq/Bx2fMxOxx+7sN+gdxU9Ifw4/vSBuVXt5/tTn/JG700k38j9fXl6mubwtt9LN40ktk5PuO5dMW0lLgB1Aqhb6Q+7qdlqbTlxtfQT2jb441H76wx+a65O/Ew88ni8sR5+b1CC++uAXsIOklDF2f3gizqY64mD6Q5x632y2aMe8PBLT1vjw/P8cnFW/PfXzeevF62T4nuEIL64+ruJQzOj+/Rf/vgEfOL8NqEFnuCHz/RxBGo9H9dVR0NDo7+eSBq4/d17O966GgtwEFAQ+PwqxUmglTfRo/ONVLmJcb8FiJqum6WWticZ4Naz6GzeFtOOQvx7UIzU8k8HEzvuuhM64NR+j/F+SRWhMJWxgNa2PEogW+xw966N/NIDJ+jl50/yUB/QSuxrtJ2OpPwqsQcaAjhCzcILMwLenxgmFa2kXC8Gzok0AwrAXiumzGX9UwCc0zny4M9Lnmk9AExTBFo9pZQAL53n8QfV+7x1roCpUYn/xEyEXC5EF4ntwIj1i2+sPzzc2jr5WQvF1f8HhC+IAk6AGySWiOx+NmDX0Y+yxgEmpjHx8BCTELEQn2B/oxLPoBSJjj74eYGfR//KCDnsLv6aDqm9l/TulkkIOE18mrMJ1i5YMQeESzFyxnXw/5JIQsQBLeZwGoqgAJTXtuWfYSi76GBy0iobYMz6i5AQkRCxEJ+Biaex8WxWVCEvzvb1HVf9zwABqeAUgh4Rkx+h45HRWYBPfyT2QhbS+203PvKojzv+iz98lzMBHigBFmQcc6KiBh6nuwgISpwAIkIdASHhLXEOt3RMLwljzpk3CGrQMgAeO+dtaMrHlEQlQ1GfS++P8M49ecNq7Gl3azdn7/EUzbi/E48ui8j1HwcVoSnpFVmJbIolkI5sWLEJEQ0HMACQIawWd4KjBJCFhIkRAJNpsEBxfHHBAf64Rx1Tw/wzrZGY19Edw3L8NfRuPwk74VHkszLHUdxCpeQklHJGAWoDp69JFYzzFIcIa+5vDV0egK4xr7SyEJPgsHkOArpLO/Qxn5jQ3G+/zeN5BXzdCjs8dn4a7jZCtsS8IMSxase571wBRgEqZ6wELaML/Qb2OQIGDj6YWGeYjhWylMwggJ/Az5nIeQgH87I4rrtHEVjXfkqOOpbzVDl+7W98QxJi8RCVDHvBIS9Jtt4C2lXFSgv3ywSEDSGl5BF9Wfi1jw51bAgn0ICVghNfe8ovq3QLwjq1nDQ/8zcEmsZjyKJlgd+STowNfBdnrqRiroIZL7YTMhJKHWxPgIZ0LtXHAxCzVKr+Qlwf/xL8kvJiQgfYQ71Gk2MRdXgWOCgSbAs/7u24RnUhCroQchtgMRCzEJrz4S228MEixgE84vLjFCm4BIQI2qnZ0dRIL7t5Lgr5ru8SR2w39gbHXhCS0VtjpZlQUmweckJCFiYW/v6AqRMLRY3hEmQXD8ifDPkGAFMwFJ4x6b5VFshLF/igb9k78+C1l4jZdoEQkhC/uS0MEcfAqZJIQs/N9JuAw/dZpD3x1yx0g7fAIH+x1Z5kdERBA6ekar4KfAEPtWNyZBCK1zSAIzxE2T4LruZa0W+jBYHd36kWc/9hyTELDwfychavlt8zz68GmNz0D7p3iV8CDMpkH8rhTEs/UH4eZhBkjwWYhtwjTAA/U2GDsaIdSwSxTMRWyY70cBriEJPgv/cxKG4VS4HEbLNGd89tkEmkG4mTwKz+i/9ykMZfusUCRgFvaIotZqvqIZB3POd1HDcPQnRQJm4X9OQnP08XnZsW+HxB0a1Wp0yGVaekcCfhRm8YYCdj5nUxw8giSgh3KSUAsDz7XmfRisAqFsn4RxbRiRgFgY7iThT5qE2l9Dwselh8PHzeZnnJZ72Uws99/1qTB7wE7/zdZfAExfnoSnaeQdgc3m7eRGCEx4CNpAXw3jjQAfo8/LyP5DEhBPzv39PTl77pzFOzMjEMA7B58Rv3Sg6BPV8JeQYF/bgvPnfHQLdjmtcRxACvGMFmzudjJFI382u3ma4bQjPVg1JMLVz7PwuxkrlO0GcWphbsUxa/JWAvw1vTk8j2fmHFyoBj+7yYvW/ordZQpUc6+jeBLBI2LB32F+eX16f3p63pYmD0Xm0RFhjYd/Ul8+TqbvaPiXJhOsjib6Q5HvckS47nLICj6+6voj0i3vzzhC/Yo+3TynHyrwLbCR6Rwzt2XfHyalbTT+Z68Pul6k4B0Jlx/jYVYA+OkBKaPpdrt9KOmT0mPBwdHAu5MWKaXHB+STTrfPf9XphP8AIidRpe0BRx0AAAAASUVORK5CYII=;" vertex="1" parent="1">
          <mxGeometry x="-544" y="593.5" width="149.23" height="50" as="geometry" />
        </mxCell>
        <mxCell id="0JAL39eOcJuFoZ2dBYce-9" value="" style="endArrow=classic;html=1;rounded=0;" edge="1" parent="1">
          <mxGeometry width="50" height="50" relative="1" as="geometry">
            <mxPoint x="-884" y="480" as="sourcePoint" />
            <mxPoint x="-884" y="570" as="targetPoint" />
          </mxGeometry>
        </mxCell>
        <mxCell id="0JAL39eOcJuFoZ2dBYce-10" value="" style="endArrow=classic;html=1;rounded=0;" edge="1" parent="1">
          <mxGeometry width="50" height="50" relative="1" as="geometry">
            <mxPoint x="-862" y="610" as="sourcePoint" />
            <mxPoint x="-554" y="610" as="targetPoint" />
          </mxGeometry>
        </mxCell>
        <mxCell id="0JAL39eOcJuFoZ2dBYce-12" value="" style="endArrow=classic;html=1;rounded=0;" edge="1" parent="1">
          <mxGeometry width="50" height="50" relative="1" as="geometry">
            <mxPoint x="-728" y="737" as="sourcePoint" />
            <mxPoint x="-854" y="860" as="targetPoint" />
          </mxGeometry>
        </mxCell>
        <mxCell id="0JAL39eOcJuFoZ2dBYce-14" value="" style="endArrow=classic;html=1;rounded=0;" edge="1" parent="1">
          <mxGeometry width="50" height="50" relative="1" as="geometry">
            <mxPoint x="-556.14" y="622.94" as="sourcePoint" />
            <mxPoint x="-864.14" y="622.94" as="targetPoint" />
          </mxGeometry>
        </mxCell>
        <mxCell id="0JAL39eOcJuFoZ2dBYce-15" value="" style="endArrow=classic;html=1;rounded=0;" edge="1" parent="1">
          <mxGeometry width="50" height="50" relative="1" as="geometry">
            <mxPoint x="-676.29" y="690" as="sourcePoint" />
            <mxPoint x="-558.5799999999999" y="639.5" as="targetPoint" />
          </mxGeometry>
        </mxCell>
        <mxCell id="0JAL39eOcJuFoZ2dBYce-16" value="" style="endArrow=classic;html=1;rounded=0;" edge="1" parent="1">
          <mxGeometry width="50" height="50" relative="1" as="geometry">
            <mxPoint x="-548.5799999999999" y="649.5" as="sourcePoint" />
            <mxPoint x="-666.29" y="700" as="targetPoint" />
          </mxGeometry>
        </mxCell>
        <mxCell id="0JAL39eOcJuFoZ2dBYce-17" value="" style="endArrow=classic;html=1;rounded=0;" edge="1" parent="1">
          <mxGeometry width="50" height="50" relative="1" as="geometry">
            <mxPoint x="-904.56" y="571" as="sourcePoint" />
            <mxPoint x="-904.56" y="481" as="targetPoint" />
          </mxGeometry>
        </mxCell>
        <mxCell id="0JAL39eOcJuFoZ2dBYce-18" value="" style="endArrow=classic;html=1;rounded=0;" edge="1" parent="1">
          <mxGeometry width="50" height="50" relative="1" as="geometry">
            <mxPoint x="-940" y="480" as="sourcePoint" />
            <mxPoint x="-940" y="570" as="targetPoint" />
          </mxGeometry>
        </mxCell>
        <mxCell id="0JAL39eOcJuFoZ2dBYce-19" value="" style="endArrow=classic;html=1;rounded=0;" edge="1" parent="1">
          <mxGeometry width="50" height="50" relative="1" as="geometry">
            <mxPoint x="-904.56" y="647" as="sourcePoint" />
            <mxPoint x="-904.56" y="710" as="targetPoint" />
          </mxGeometry>
        </mxCell>
        <mxCell id="0JAL39eOcJuFoZ2dBYce-20" value="" style="endArrow=classic;html=1;rounded=0;endFill=1;" edge="1" parent="1">
          <mxGeometry width="50" height="50" relative="1" as="geometry">
            <mxPoint x="-900.56" y="784" as="sourcePoint" />
            <mxPoint x="-901" y="840" as="targetPoint" />
          </mxGeometry>
        </mxCell>
        <mxCell id="0JAL39eOcJuFoZ2dBYce-21" value="Database" style="text;html=1;strokeColor=none;fillColor=none;align=center;verticalAlign=middle;whiteSpace=wrap;rounded=0;" vertex="1" parent="1">
          <mxGeometry x="-926.31" y="890" width="60" height="30" as="geometry" />
        </mxCell>
        <mxCell id="0JAL39eOcJuFoZ2dBYce-22" value="SAML API Gateway" style="text;html=1;strokeColor=none;fillColor=none;align=center;verticalAlign=middle;whiteSpace=wrap;rounded=0;" vertex="1" parent="1">
          <mxGeometry x="-704" y="732" width="120" height="30" as="geometry" />
        </mxCell>
        <mxCell id="0JAL39eOcJuFoZ2dBYce-23" value="Reverse Proxy with Nginx" style="text;html=1;strokeColor=none;fillColor=none;align=center;verticalAlign=middle;whiteSpace=wrap;rounded=0;" vertex="1" parent="1">
          <mxGeometry x="-904" y="646" width="120" height="30" as="geometry" />
        </mxCell>
        <mxCell id="0JAL39eOcJuFoZ2dBYce-24" value="1. Access to /login page" style="text;html=1;strokeColor=none;fillColor=none;align=center;verticalAlign=middle;whiteSpace=wrap;rounded=0;" vertex="1" parent="1">
          <mxGeometry x="-884" y="499" width="140" height="30" as="geometry" />
        </mxCell>
        <mxCell id="0JAL39eOcJuFoZ2dBYce-25" value="2. Redirect to Onelogin" style="text;html=1;strokeColor=none;fillColor=none;align=center;verticalAlign=middle;whiteSpace=wrap;rounded=0;" vertex="1" parent="1">
          <mxGeometry x="-794" y="574" width="140" height="30" as="geometry" />
        </mxCell>
        <mxCell id="0JAL39eOcJuFoZ2dBYce-26" value="3. Access SAML Endpoint" style="text;html=1;strokeColor=none;fillColor=none;align=center;verticalAlign=middle;whiteSpace=wrap;rounded=0;" vertex="1" parent="1">
          <mxGeometry x="-624" y="680.25" width="140" height="30" as="geometry" />
        </mxCell>
        <mxCell id="0JAL39eOcJuFoZ2dBYce-28" value="4. Generate token or session id" style="text;html=1;strokeColor=none;fillColor=none;align=center;verticalAlign=middle;whiteSpace=wrap;rounded=0;" vertex="1" parent="1">
          <mxGeometry x="-794" y="795.5" width="140" height="30" as="geometry" />
        </mxCell>
        <mxCell id="0JAL39eOcJuFoZ2dBYce-29" value="5. Return token or session id" style="text;html=1;strokeColor=none;fillColor=none;align=center;verticalAlign=middle;whiteSpace=wrap;rounded=0;" vertex="1" parent="1">
          <mxGeometry x="-744" y="633" width="140" height="30" as="geometry" />
        </mxCell>
        <mxCell id="0JAL39eOcJuFoZ2dBYce-30" value="6. Redirect to /home with token or session id" style="text;html=1;strokeColor=none;fillColor=none;align=center;verticalAlign=middle;whiteSpace=wrap;rounded=0;" vertex="1" parent="1">
          <mxGeometry x="-1080" y="513" width="140" height="30" as="geometry" />
        </mxCell>
      </root>
    </mxGraphModel>
  </diagram>
</mxfile>
